<svg width="218" height="218" fill="none" xmlns="http://www.w3.org/2000/svg"><path d="M152.411 65.319H65.319v87.092h87.092V65.319z" fill="#010101"/><path d="M107.5 136.097H74.808v5.46H107.5v-5.46zm-34.057-48.29l2.405-2.275c.65.78 1.3 1.235 2.145 1.235.91 0 1.56-.65 1.56-1.885v-8.58h3.77v8.645c0 1.69-.456 2.925-1.366 3.834-.91.91-2.145 1.365-3.704 1.365-2.405-.065-3.835-1.04-4.81-2.34zm11.504-11.57H95.93v3.186h-7.215v2.08h6.5v2.989h-6.5v2.145h7.28v3.184h-11.05V76.239zm16.313 3.316h-4.094v-3.315h11.894v3.314h-4.03v10.27h-3.77v-10.27zM74.938 95.215h6.434c1.69 0 2.925.455 3.705 1.235.52.585.845 1.3.845 2.21v.065c0 1.56-.91 2.534-2.08 3.054 1.625.52 2.73 1.495 2.73 3.315v.065c0 2.34-1.885 3.77-5.135 3.77h-6.434V95.216h-.065zm7.28 4.16c0-.78-.586-1.17-1.69-1.17h-1.886v2.405h1.82c1.105 0 1.755-.39 1.755-1.235zm-1.3 3.899h-2.34v2.535h2.34c1.17 0 1.82-.455 1.82-1.235v-.065c.064-.78-.52-1.235-1.82-1.235zm6.824-8.059h6.044c2.08 0 3.51.52 4.42 1.43.78.78 1.235 1.82 1.235 3.185v.065c0 2.079-1.105 3.444-2.795 4.224l3.25 4.745H95.54l-2.73-4.095h-1.235v4.095h-3.77V95.216h-.064zm5.914 6.499c1.235 0 2.015-.649 2.015-1.624v-.065c0-1.105-.78-1.625-2.015-1.625h-2.08v3.314h2.08z" fill="#fff"/><path d="M104.64 95.086h3.64l5.784 13.714h-4.029l-.975-2.47h-5.265l-.975 2.47h-3.9l5.72-13.714zm3.315 8.319l-1.495-3.835-1.56 3.835h3.055zm10.464-8.254h-3.77v13.584h3.77V95.151zm1.43 0h3.509l4.94 7.214v-7.214h3.704v13.584h-3.314l-5.07-7.41v7.41h-3.769V95.151zm12.803 11.569l2.08-2.535c1.365 1.04 2.86 1.625 4.42 1.625 1.04 0 1.56-.325 1.56-.91v-.065c0-.585-.455-.845-2.34-1.3-2.925-.65-5.135-1.495-5.135-4.224v-.065c0-2.535 2.015-4.355 5.265-4.355 2.34 0 4.094.65 5.589 1.82l-1.885 2.665c-1.234-.91-2.599-1.365-3.834-1.365-.91 0-1.365.39-1.365.845v.065c0 .65.455.91 2.34 1.3 3.119.65 5.069 1.689 5.069 4.224v.065c0 2.795-2.21 4.42-5.524 4.42-2.275.065-4.55-.715-6.24-2.21z" fill="#fff"/></svg>